DataType=double
version=3
OpenSimVersion=4.5
endheader
time	ground_force_1_vx	ground_force_1_vy	ground_force_1_vz	ground_force_1_px	ground_force_1_py	ground_force_1_pz	ground_moment_1_mx	ground_moment_1_my	ground_moment_1_mz	ground_force_2_vx	ground_force_2_vy	ground_force_2_vz	ground_force_2_px	ground_force_2_py	ground_force_2_pz	ground_moment_2_mx	ground_moment_2_my	ground_moment_2_mz
0	4.908273922	658.4854501999999	25.96199006	0.7729418568157921	0	0.4263276293037873	0	-5.921361496881261	0	0	0	0	0.8089	0	0.745900015	0	0	0
0.005	4.626406675	659.3587865	26.80350432	0.7688019857049576	0	0.4268249960864189	0	-4.108076224402626	0	0	0	0	0.8089	0	0.745900015	0	0	0
0.01	5.029074147	660.7734358	27.77806046	0.7641049336747362	0	0.427211062006516	0	-2.592932731630786	0	0	0	0	0.8089	0	0.745900015	0	0	0
0.015	6.277326643	662.6693074999999	28.73296581	0.7589750938199101	0	0.4274877864257031	0	-1.489554066121437	0	0	0	0	0.8089	0	0.745900015	0	0	0
0.02	8.202590984	664.8958568	29.47566055	0.7533855182348106	0	0.427693256711263	0	-0.7746651520621017	0	0	0	0	0.8089	0	0.745900015	0	0	0
0.025	10.56868828	667.3109286	29.96667961	0.7474889810288857	0	0.4278598649443159	0	-0.3499669877453062	0	0	0	0	0.8089	0	0.745900015	0	0	0
0.03	13.26149821	669.8961724	30.36071561	0.7416003960320515	0	0.4279803418075678	0	-0.177233456178377	0	0	0	0	0.8089	0	0.745900015	0	0	0
0.035	16.1316851	672.623684	30.82442468	0.7357831329107244	0	0.4280564589862073	0	-0.1809585745668869	0	0	0	0	0.8089	0	0.745900015	0	0	0
0.04	19.02539671	675.3538783	31.34889533	0.729841286896605	0	0.428131344935973	0	-0.2647012222782386	0	0	0	0	0.8089	0	0.745900015	0	0	0
0.045	21.9998475	677.9954119	31.80599415	0.7237662577828972	0	0.4282329047146832	0	-0.3982527964767382	0	0	0	0	0.8089	0	0.745900015	0	0	0
0.05	25.13628041	680.6044842	32.17020587	0.7177267230401853	0	0.4283353472757476	0	-0.5418694396960317	0	0	0	0	0.8089	0	0.745900015	0	0	0
0.055	28.31853175	683.2338473999999	32.59582686	0.7117745477137994	0	0.4284081196498934	0	-0.6698579204152146	0	0	0	0	0.8089	0	0.745900015	0	0	0
0.06	31.4887822	685.749683	33.21191643	0.7058681277483778	0	0.4284733448183082	0	-0.7944753790941537	0	0	0	0	0.8089	0	0.745900015	0	0	0
0.065	34.81968175	688.0129705000001	33.94937852	0.7000354355667519	0	0.4285673722747855	0	-0.919980173802931	0	0	0	0	0.8089	0	0.745900015	0	0	0
0.07000000000000001	38.37442298	690.1505654	34.59224229	0.6942832233152468	0	0.4286618575448392	0	-1.040256758177901	0	0	0	0	0.8089	0	0.745900015	0	0	0
0.075	41.98193527	692.3032514	35.00856177	0.6885800733570332	0	0.4287208906032807	0	-1.10570929470156	0	0	0	0	0.8089	0	0.745900015	0	0	0
0.08	45.57039779	694.4161048	35.25151957	0.6829643108754844	0	0.4287443331397637	0	-1.112916353500582	0	0	0	0	0.8089	0	0.745900015	0	0	0
0.08500000000000001	49.24949881	696.3262334	35.48203939	0.6774814683079574	0	0.4287636275109383	0	-1.12767419415303	0	0	0	0	0.8089	0	0.745900015	0	0	0
0.09	53.01513697	697.9683889	35.77291271	0.6720322713497824	0	0.4287944191762995	0	-1.151838985650944	0	0	0	0	0.8089	0	0.745900015	0	0	0
0.095	56.74562798	699.3911356	36.02842489	0.6665170342856285	0	0.4288205791848381	0	-1.137887711671598	0	0	0	0	0.8089	0	0.745900015	0	0	0
0.1	60.42926596	700.5713233	36.15412046	0.6609899912392293	0	0.4288400262753461	0	-1.0654684065637	0	0	0	0	0.8089	0	0.745900015	0	0	0
0.105	64.14966901	701.3642517	36.2075152	0.6555634514515547	0	0.4288611544364538	0	-0.9562687227881428	0	0	0	0	0.8089	0	0.745900015	0	0	0
0.11	67.88969468000001	701.6125337	36.38757396	0.6502076664397023	0	0.4288974662574108	0	-0.8504662669887342	0	0	0	0	0.8089	0	0.745900015	0	0	0
0.115	71.60697121	701.3122974	36.78089152	0.6448786274288256	0	0.4289346183610289	0	-0.7717207861365765	0	0	0	0	0.8089	0	0.745900015	0	0	0
0.12	75.36885196999999	700.5056971	37.21589842	0.6396036925379168	0	0.4289437946943474	0	-0.6977466378795532	0	0	0	0	0.8089	0	0.745900015	0	0	0
0.125	79.24123779999999	699.09474	37.49320557	0.634379595709551	0	0.4289442290575585	0	-0.6055671130836968	0	0	0	0	0.8089	0	0.745900015	0	0	0
0.13	83.16889965	697.0115109	37.58202654	0.629087290927076	0	0.4289351601547134	0	-0.499924251679337	0	0	0	0	0.8089	0	0.745900015	0	0	0
0.135	87.11837401	694.2236348	37.64974436	0.6236511629056046	0	0.4289286281504181	0	-0.4200949515270649	0	0	0	0	0.8089	0	0.745900015	0	0	0
0.14	91.15783774000001	690.7287877	37.7535898	0.6181585670304888	0	0.428926794091696	0	-0.4077026450581496	0	0	0	0	0.8089	0	0.745900015	0	0	0
0.145	95.27978040000001	686.4543674	37.75366668	0.6126669199775213	0	0.4289498390898708	0	-0.4309170513128375	0	-1.927236064	11.90877516	-1.252246009	1.016824654108593	0	0.5513990462706517	0	-0.2552786486983269	0
0.15	99.39489879	681.3138484	37.47756639	0.6071331344034127	0	0.4290134696514943	0	-0.4351223127042703	0	1.838868244	24.40382715	-0.286326241	0.9972665661023172	0	0.546350375344402	0	-0.2552032693378323	0
0.155	103.5140504	675.2062595	36.88789041	0.6015858072667195	0	0.4290970952841814	0	-0.427040267684867	0	7.38632307	42.79655303	1.795319431	0.9856248059837496	0	0.5448580656642967	0	-0.1811473614615927	0
0.16	107.678893	667.9061668000001	36.12337394	0.5961251212294209	0	0.4291949118500113	0	-0.4387805435778578	0	14.2561878	67.77117263	5.355957502	0.9771995110955334	0	0.5447631644629636	0	0.02281867479157695	0
0.165	111.7783836	659.1223608	35.24161803	0.5908152510042923	0	0.429279380510995	0	-0.4715070190028854	0	20.73251076	99.19617359	10.50579029	0.9713151748694483	0	0.5453594714481729	0	0.2813635590966082	0
0.17	115.648494	648.4808124	34.19778868	0.5856525328879174	0	0.4293544366485584	0	-0.4853883521712685	0	24.48889185	135.7686793	16.89084037	0.9672942073449925	0	0.5460906656724044	0	0.4994420050993109	0
0.175	119.259932	635.6278969	32.89156155	0.5806431037108728	0	0.4294085105276146	0	-0.4652614496883034	0	24.05006105	175.2505307	23.60727052	0.9645845343692874	0	0.5465773085267351	0	0.5883095719692562	0
0.18	122.5789334	620.1834996	31.34445343	0.575746259523735	0	0.4294487922198715	0	-0.4411516454157622	0	19.32206035	215.2624691	29.59072586	0.9627806624698332	0	0.5468955425571073	0	0.5691957027615118	0
0.185	125.3631321	601.8058896	29.68197187	0.5708944500688361	0	0.4294854354128215	0	-0.4357828580419199	0	11.01458143	253.9101609	34.04201705	0.9616113482286797	0	0.5471815722990329	0	0.4923810639017931	0
0.19	127.3056818	580.3659178	27.9733166	0.5661968128494048	0	0.4294903678211863	0	-0.4493900264178041	0	0.401271839	290.0333239	36.70406026	0.9611465074917551	0	0.5476091043326827	0	0.2996295987323823	0
0.195	128.1923601	555.8957101	26.1499352	0.5618193610817895	0	0.4294432845398908	0	-0.4652305326501667	0	-10.73806274	323.1365994	37.56020539	0.9612735230284162	0	0.5482446079721572	0	0.06649153737999569	0
0.2	127.8516839	528.5127974	24.05935359	0.5577715537668705	0	0.4293447744573257	0	-0.465842461394133	0	-20.91900219	353.1398884	36.5237222	0.9612510596997741	0	0.5490986032283584	0	-0.03401155449589854	0
0.205	126.0834687	498.4277008	21.65347635	0.5539224281571881	0	0.4292252791024116	0	-0.44739880047839	0	-29.78318307	380.0552381	33.45014878	0.9603885711819899	0	0.5501493806134666	0	-0.04924087749557593	0
0.21	122.7098379	466.1316894	19.0088122	0.5502717901291467	0	0.4290678817375526	0	-0.4270660071000068	0	-37.6782924	403.9764478	28.29059858	0.958829632877969	0	0.5513515056301922	0	-0.03999853802236686	0
0.215	117.6679196	432.3109255	16.20692444	0.5470114773331072	0	0.4288260284233907	0	-0.4112751880575471	0	-44.6630208	425.3861411	21.16611743	0.9569464180782874	0	0.5526937375282585	0	-0.008641068275058839	0
0.22	111.0635156	397.6028306	13.24895898	0.5442054396940643	0	0.4285064979585106	0	-0.3881324837595868	0	-50.4234418	445.2883135	12.40201799	0.9544566190824813	0	0.554181039312128	0	0.07272788087148152	0
0.225	103.2055794	362.6335971	10.13420972	0.5416852380823802	0	0.4281500516627609	0	-0.354202921716277	0	-54.99791845	464.9613863	2.537658655	0.9510454690161224	0	0.5557348080489213	0	0.2890714857949941	0
0.23	94.53108729	328.0972874	6.971479262	0.5393478211407728	0	0.4277463018029192	0	-0.3048481067054067	0	-59.11766867	485.8160134	-7.683778901	0.9472504067920869	0	0.5573085960618115	0	0.5732435045532007	0
0.235	85.43769312000001	294.5957018	3.980781072	0.5373970001626768	0	0.4272304800218016	0	-0.2301873860810022	0	-63.66616945	509.2044591	-17.42827922	0.9438418380613706	0	0.5589768358545721	0	0.7723586802008926	0
0.24	76.21081089	262.4439105	1.395883284	0.536077552488353	0	0.4265674436454644	0	-0.1445199707781031	0	-68.85565518	535.6070783	-25.98809818	0.940906876280298	0	0.5606841310447935	0	0.8671789693139069	0
0.245	67.14261605999999	231.754836	-0.602668273	0.5352652895395409	0	0.4257951803095195	0	-0.0865991219104629	0	-74.13622094999999	564.2324999	-32.85048847	0.9380594119851584	0	0.5622121696200036	0	0.9060372748687238	0
0.25	58.56525443	202.6342662	-1.965248099	0.5345101829773869	0	0.4249534162753995	0	-0.09133042934723035	0	-78.95463212	593.7309807	-37.84714298	0.9351011155315816	0	0.5633785532224203	0	0.9028771375872795	0
0.255	50.64480991	175.1774645	-2.754438777	0.5332687016481304	0	0.4241155974200053	0	-0.1504015574227192	0	-83.22918925	623.1587436999999	-41.13001354	0.9321521203248584	0	0.5642233485894538	0	0.824991421212391	0
